<?xml version="1.0" encoding="UTF-8" standalone="no" ?>
<!DOCTYPE svg PUBLIC "-//W3C//DTD SVG 1.1//EN" "http://www.w3.org/Graphics/SVG/1.1/DTD/svg11.dtd">
<svg xmlns="http://www.w3.org/2000/svg" xmlns:xlink="http://www.w3.org/1999/xlink" version="1.1" width="1080" height="1080" viewBox="0 0 1080 1080" xml:space="preserve">
<desc>Created with Fabric.js 5.2.4</desc>
<defs>
</defs>
<g transform="matrix(1 0 0 1 540 540)" id="c39bcc2f-eab6-498e-b00b-7c06e4454d29"  >
<rect style="stroke: none; stroke-width: 1; stroke-dasharray: none; stroke-linecap: butt; stroke-dashoffset: 0; stroke-linejoin: miter; stroke-miterlimit: 4; fill: rgb(255,255,255); fill-rule: nonzero; opacity: 1; visibility: hidden;" vector-effect="non-scaling-stroke"  x="-540" y="-540" rx="0" ry="0" width="1080" height="1080" />
</g>
<g transform="matrix(1 0 0 1 540 540)" id="fbd4c65f-e4ea-41f3-954e-d8325d560098"  >
</g>
<g transform="matrix(1 0 0 1 540 540)" id="425d1ee1-5fea-496d-88ae-a5664487fdab"  >
<path style="stroke: rgb(0,0,0); stroke-width: 0; stroke-dasharray: none; stroke-linecap: butt; stroke-dashoffset: 0; stroke-linejoin: miter; stroke-miterlimit: 4; fill: rgb(8,8,9); fill-rule: nonzero; opacity: 1;" vector-effect="non-scaling-stroke"  transform=" translate(-250, -250.23)" d="M 180.055 106.266 C 176.42 87.7618 178.955 45.5333 184.298 35.575 C 186.628 31.2327 201.948 20.9533 218.158 35.575 C 223.684 44.9833 224.638 52.6372 225.601 60.3606 C 226.467 67.3137 227.341 74.3231 231.564 82.7194 C 241.067 101.614 243.513 111.828 244.526 136.829 L 245.44 159.413 L 254.567 159.855 L 263.695 160.296 L 267.852 143.293 C 272.726 123.363 282.534 101.52 290.647 92.5347 C 301.341 80.6883 312.965 77.525 324.382 83.3548 C 340.823 91.7472 366.357 134.123 370.439 159.79 C 371.412 165.904 371.287 166.189 367.639 166.189 C 362.701 166.189 351.74 157.464 339.957 144.155 C 325.712 128.065 318.602 125.487 309.097 132.968 C 304.948 136.234 296.001 152.667 292.822 162.861 L 290.809 169.32 L 297.715 176.412 C 309.701 188.719 313.793 200.961 313.868 224.732 C 313.891 232.018 314.548 234.931 316.585 236.777 C 318.622 238.623 320.972 240.531 323.388 242.492 C 332.357 249.774 342.216 257.778 340.158 265.953 C 337.994 274.555 322.027 280.65 309.609 285.389 L 309.442 285.453 C 306.896 286.426 304.288 287.103 302.215 287.641 C 299.791 288.271 298.1 288.711 298.1 289.208 C 298.1 290.131 303.204 294.911 309.442 299.833 C 323.878 311.225 328.296 316.51 334.282 329.55 C 344.438 351.668 346.501 373.466 340.981 400.315 C 339.326 408.364 337.971 415.215 337.971 415.537 C 337.971 415.861 341.045 416.124 344.802 416.124 C 360.295 416.124 369.038 425.775 370.616 444.62 C 371.429 454.32 371.265 455.007 366.98 459.807 C 362.98 464.286 361.456 464.908 352.963 465.522 C 347.231 465.938 337.514 465.125 328.574 463.484 C 316.754 461.313 312.732 461.106 308.917 462.47 C 306.278 463.413 297.01 466.06 288.321 468.351 C 273.871 472.162 270.276 472.512 246.193 472.447 C 218.766 472.375 212.338 471.181 192.028 462.392 C 187.232 460.317 185.823 460.364 176.23 462.922 C 162.572 466.564 143.664 466.74 137.811 463.281 C 127.95 457.452 126.152 443.049 133.502 428.765 C 137.936 420.146 144.758 416.124 154.942 416.124 C 162.177 416.124 162.274 416.062 161.359 411.984 C 153.206 375.601 154.402 352.264 165.581 329.55 C 172.237 316.026 178.929 308.306 192.442 298.56 C 198.421 294.247 203.649 290.423 204.062 290.062 C 205.5 288.802 199.024 285.194 191.277 282.94 C 190.944 282.843 190.603 282.744 190.257 282.644 C 179.615 279.557 163.452 274.869 160.658 266.453 C 158.114 258.788 165.554 252.417 173.186 245.88 C 175.936 243.525 178.711 241.148 181.054 238.682 C 187.197 232.214 187.633 231.228 186.831 225.661 C 185.556 216.811 188.465 197.267 192.129 190.082 C 193.882 186.643 198.301 180.637 201.948 176.734 C 205.595 172.833 208.578 169.174 208.578 168.604 C 208.578 168.033 205.917 163.96 202.662 159.552 C 191.589 144.551 184.113 126.932 180.055 106.266 Z M 249.158 427.453 C 258.271 427.453 265.658 420.066 265.658 410.953 C 265.658 401.84 258.271 394.453 249.158 394.453 C 240.046 394.453 232.658 401.84 232.658 410.953 C 232.658 420.066 240.046 427.453 249.158 427.453 Z" stroke-linecap="round" />
</g>
</svg>